HIERARCHY
ROOT hip
{
  OFFSET 0 0 0
  CHANNELS 6 Xposition Yposition Zposition Zrotation Yrotation Xrotation
  JOINT abdomen
  {
    OFFSET 0 20.6881 -0.73152
    CHANNELS 3 Zrotation Xrotation Yrotation
    JOINT chest
    {
      OFFSET 0 11.7043 -0.48768
      CHANNELS 3 Zrotation Xrotation Yrotation
      JOINT neck
      {
        OFFSET 0 22.1894 -2.19456
        CHANNELS 3 Zrotation Xrotation Yrotation
        JOINT head
        {
          OFFSET -0.24384 7.07133 1.2192
          CHANNELS 3 Zrotation Xrotation Yrotation
          JOINT leftEye
          {
            OFFSET 4.14528 8.04674 8.04672
            CHANNELS 3 Zrotation Xrotation Yrotation
            End Site
            {
              OFFSET 1 0 0
            }
          }
          JOINT rightEye
          {
            OFFSET -3.6576 8.04674 8.04672
            CHANNELS 3 Zrotation Xrotation Yrotation
            End Site
            {
              OFFSET 1 0 0
            }
          }
        }
      }
      JOINT rCollar
      {
        OFFSET -2.68224 19.2634 -4.8768
        CHANNELS 3 Zrotation Xrotation Yrotation
        JOINT rShldr
        {
          OFFSET -8.77824 -1.95073 1.46304
          CHANNELS 3 Zrotation Xrotation Yrotation
          JOINT rForeArm
          {
            OFFSET -28.1742 -1.7115 0.48768
            CHANNELS 3 Zrotation Xrotation Yrotation
            JOINT rHand
            {
              OFFSET -22.5879 0.773209 7.07136
              CHANNELS 3 Zrotation Xrotation Yrotation
              JOINT rThumb1
              {
                OFFSET -1.2192 -0.487915 3.41376
                CHANNELS 3 Zrotation Xrotation Yrotation
                JOINT rThumb2
                {
                  OFFSET -3.37035 -0.52449 3.41376
                  CHANNELS 3 Zrotation Xrotation Yrotation
                  End Site
                  {
                    OFFSET -1.78271 -1.18214 1.43049
                  }
                }
              }
              JOINT rIndex1
              {
                OFFSET -7.75947 0.938293 5.60832
                CHANNELS 3 Zrotation Xrotation Yrotation
                JOINT rIndex2
                {
                  OFFSET -2.54057 -0.884171 1.56538
                  CHANNELS 3 Zrotation Xrotation Yrotation
                  End Site
                  {
                    OFFSET -1.62519 -0.234802 1.16502
                  }
                }
              }
              JOINT rMid1
              {
                OFFSET -8.24714 1.18213 3.41376
                CHANNELS 3 Zrotation Xrotation Yrotation
                JOINT rMid2
                {
                  OFFSET -3.10165 -0.590103 1.0647
                  CHANNELS 3 Zrotation Xrotation Yrotation
                  End Site
                  {
                    OFFSET -2.48547 -0.328903 0.83742
                  }
                }
              }
              JOINT rRing1
              {
                OFFSET -8.82822 0.546677 1.51678
                CHANNELS 3 Zrotation Xrotation Yrotation
                JOINT rRing2
                {
                  OFFSET -2.60934 -0.819778 -0.0198488
                  CHANNELS 3 Zrotation Xrotation Yrotation
                  End Site
                  {
                    OFFSET -2.33842 -0.294052 0.168128
                  }
                }
              }
              JOINT rPinky1
              {
                OFFSET -8.27202 -0.0477905 -0.4584
                CHANNELS 3 Zrotation Xrotation Yrotation
                JOINT rPinky2
                {
                  OFFSET -1.82734 -0.647385 -0.700984
                  CHANNELS 3 Zrotation Xrotation Yrotation
                  End Site
                  {
                    OFFSET -1.69225 -0.51767 -0.607171
                  }
                }
              }
            }
          }
        }
      }
      JOINT lCollar
      {
        OFFSET 2.68224 19.2634 -4.8768
        CHANNELS 3 Zrotation Xrotation Yrotation
        JOINT lShldr
        {
          OFFSET 8.77824 -1.95073 1.46304
          CHANNELS 3 Zrotation Xrotation Yrotation
          JOINT lForeArm
          {
            OFFSET 28.1742 -1.7115 0.48768
            CHANNELS 3 Zrotation Xrotation Yrotation
            JOINT lHand
            {
              OFFSET 22.5879 0.773209 7.07136
              CHANNELS 3 Zrotation Xrotation Yrotation
              JOINT lThumb1
              {
                OFFSET 1.2192 -0.487915 3.41376
                CHANNELS 3 Zrotation Xrotation Yrotation
                JOINT lThumb2
                {
                  OFFSET 3.37035 -0.52449 3.41376
                  CHANNELS 3 Zrotation Xrotation Yrotation
                  End Site
                  {
                    OFFSET 1.78271 -1.18214 1.43049
                  }
                }
              }
              JOINT lIndex1
              {
                OFFSET 7.75947 0.938293 5.60832
                CHANNELS 3 Zrotation Xrotation Yrotation
                JOINT lIndex2
                {
                  OFFSET 2.54057 -0.884171 1.56538
                  CHANNELS 3 Zrotation Xrotation Yrotation
                  End Site
                  {
                    OFFSET 1.62519 -0.234802 1.16502
                  }
                }
              }
              JOINT lMid1
              {
                OFFSET 8.24714 1.18213 3.41376
                CHANNELS 3 Zrotation Xrotation Yrotation
                JOINT lMid2
                {
                  OFFSET 3.10165 -0.590103 1.0647
                  CHANNELS 3 Zrotation Xrotation Yrotation
                  End Site
                  {
                    OFFSET 2.48547 -0.328903 0.83742
                  }
                }
              }
              JOINT lRing1
              {
                OFFSET 8.82822 0.546677 1.51678
                CHANNELS 3 Zrotation Xrotation Yrotation
                JOINT lRing2
                {
                  OFFSET 2.60934 -0.819778 -0.0198488
                  CHANNELS 3 Zrotation Xrotation Yrotation
                  End Site
                  {
                    OFFSET 2.33842 -0.294052 0.168128
                  }
                }
              }
              JOINT lPinky1
              {
                OFFSET 8.27202 -0.0477905 -0.4584
                CHANNELS 3 Zrotation Xrotation Yrotation
                JOINT lPinky2
                {
                  OFFSET 1.82734 -0.647385 -0.700984
                  CHANNELS 3 Zrotation Xrotation Yrotation
                  End Site
                  {
                    OFFSET 1.69225 -0.51767 -0.607171
                  }
                }
              }
            }
          }
        }
      }
    }
  }
  JOINT rButtock
  {
    OFFSET -8.77824 4.35084 1.2192
    CHANNELS 3 Zrotation Xrotation Yrotation
    JOINT rThigh
    {
      OFFSET 0 -1.70687 -2.19456
      CHANNELS 3 Zrotation Xrotation Yrotation
      JOINT rShin
      {
        OFFSET 0 -36.8199 0.73152
        CHANNELS 3 Zrotation Xrotation Yrotation
        JOINT rFoot
        {
          OFFSET 0.73152 -45.1104 -5.12064
          CHANNELS 3 Zrotation Xrotation Yrotation
          End Site
          {
            OFFSET -1.1221 -3.69964 12.103
          }
        }
      }
    }
  }
  JOINT lButtock
  {
    OFFSET 8.77824 4.35084 1.2192
    CHANNELS 3 Zrotation Xrotation Yrotation
    JOINT lThigh
    {
      OFFSET 0 -1.70687 -2.19456
      CHANNELS 3 Zrotation Xrotation Yrotation
      JOINT lShin
      {
        OFFSET 0 -36.8199 0.73152
        CHANNELS 3 Zrotation Xrotation Yrotation
        JOINT lFoot
        {
          OFFSET -0.73152 -45.1104 -5.12064
          CHANNELS 3 Zrotation Xrotation Yrotation
          End Site
          {
            OFFSET 1.1221 -3.69964 12.103
          }
        }
      }
    }
  }
}
MOTION
Frames:	6
Frame Time:	0.00833333
196.757 77.1904 22.899 838.489 80.6375 839.432 2.99189 37.4899 0.370402 -1.62396 -4.77366 0.872365 5.35409 -10.3096 6.59077 -18.5375 15.3186 14.4025 -0.0 0.0 0.0 -0.0 0.0 0.0 -1.43871e-14 8.19179e-13 -2.8779e-13 63.4699 16.5507 12.9345 -16.0707 -8.7532 29.8222 -0.454411 -18.8067 -2.74336 1.87066e-09 2.52915e-09 -3.62154e-10 3.24596e-09 4.36998e-09 -6.06854e-10 1.87066e-09 2.52915e-09 -3.62154e-10 7.73091 5.47488 0.417314 1.87066e-09 2.52915e-09 -3.62141e-10 2.90554 0.965183 0.102902 1.87067e-09 2.52915e-09 -3.62153e-10 10.2786 0.731801 0.0259123 1.87066e-09 2.52915e-09 -3.62141e-10 2.22167 -0.733487 -0.20892 -1.4239e-14 8.19206e-13 -2.8784e-13 -76.8853 32.971 -4.55181 13.6755 -6.6956 -24.9035 0.303925 -15.4974 2.2333 -5.44234e-10 -8.63503e-10 -3.02871e-09 -9.17123e-10 -1.50383e-09 -5.23964e-09 -5.44239e-10 -8.63506e-10 -3.02871e-09 -7.73091 5.47488 -0.417314 -5.4423e-10 -8.63507e-10 -3.02872e-09 -2.90554 0.965183 -0.102902 -5.44241e-10 -8.63503e-10 -3.02872e-09 -10.2786 0.731801 -0.0259123 -5.44224e-10 -8.63501e-10 -3.02873e-09 -2.22167 -0.733487 0.20892 -2.03217e-16 0.0 -3.88251e-19 -9.12303 -27.6849 -9.71088 -0.829909 58.8302 2.03444 -9.93718 -26.0725 -18.4674 2.03217e-16 0.0 3.88251e-19 11.4991 -46.9642 14.5859 0.349599 39.4828 -0.530018 0.997549 0.657591 6.6148
197.368 77.2825 22.8757 837.307 81.0609 837.926 2.93273 37.1367 0.599113 -1.70704 -4.47018 0.925806 5.42923 -10.1634 6.65248 -18.9327 15.3967 14.6124 -0.0 0.0 0.0 -0.0 0.0 0.0 -1.98238e-14 8.26446e-13 -2.76987e-13 63.4419 16.7071 13.1426 -16.091 -8.77178 29.8659 -0.461833 -18.9548 -2.7666 1.39207e-09 2.06905e-09 -5.15806e-10 2.41857e-09 3.57711e-09 -8.77874e-10 1.39207e-09 2.06905e-09 -5.15807e-10 7.73091 5.47488 0.417314 1.39207e-09 2.06905e-09 -5.15796e-10 2.90554 0.965183 0.102902 1.39208e-09 2.06905e-09 -5.15805e-10 10.2786 0.731801 0.0259123 1.39207e-09 2.06905e-09 -5.15794e-10 2.22167 -0.733487 -0.20892 -1.97233e-14 8.26466e-13 -2.77045e-13 -77.1104 32.841 -4.43272 13.6386 -6.66636 -24.8304 0.290629 -15.1651 2.18305 -3.39859e-10 -7.48791e-10 -2.19952e-09 -5.70274e-10 -1.30185e-09 -3.80434e-09 -3.39866e-10 -7.48794e-10 -2.19951e-09 -7.73091 5.47488 -0.417314 -3.39854e-10 -7.48797e-10 -2.19954e-09 -2.90554 0.965183 -0.102902 -3.39869e-10 -7.48791e-10 -2.19953e-09 -10.2786 0.731801 -0.0259123 -3.39852e-10 -7.48789e-10 -2.19953e-09 -2.22167 -0.733487 0.20892 -2.03217e-16 0.0 -3.88251e-19 -8.80062 -26.8534 -9.36536 -0.819046 58.5109 1.99544 -9.95925 -26.1661 -18.4918 2.03217e-16 0.0 3.88251e-19 11.3802 -46.076 13.4062 0.304127 36.7798 -0.434561 0.73036 2.44879 6.23916
197.983 77.302 22.8941 836.174 81.7048 836.437 2.96754 36.8277 0.817591 -1.79662 -4.15487 0.987499 5.49979 -10.0088 6.71665 -19.3568 15.4922 14.8422 -0.0 0.0 0.0 -0.0 0.0 0.0 -1.18892e-14 8.63697e-13 -2.32606e-13 63.3415 16.8963 13.43 -16.0828 -8.76388 29.849 -0.473033 -19.1735 -2.80103 5.65919e-10 1.31112e-09 -6.75602e-10 9.89831e-10 2.27119e-09 -1.16359e-09 5.65922e-10 1.31112e-09 -6.75604e-10 7.73091 5.47488 0.417314 5.65919e-10 1.31112e-09 -6.75597e-10 2.90554 0.965183 0.102902 5.65926e-10 1.31112e-09 -6.75601e-10 10.2786 0.731801 0.0259123 5.6592e-10 1.31112e-09 -6.75591e-10 2.22167 -0.733487 -0.20892 -1.18664e-14 8.63705e-13 -2.3269e-13 -77.2932 32.7345 -4.37872 13.6234 -6.65438 -24.8 0.27777 -14.8381 2.13372 -2.01288e-10 -4.78561e-10 -9.07603e-10 -3.4043e-10 -8.3038e-10 -1.57031e-09 -2.01297e-10 -4.78563e-10 -9.07594e-10 -7.73091 5.47488 -0.417314 -2.01282e-10 -4.78568e-10 -9.07623e-10 -2.90554 0.965183 -0.102902 -2.013e-10 -4.78561e-10 -9.07605e-10 -10.2786 0.731801 -0.0259123 -2.01285e-10 -4.78559e-10 -9.07612e-10 -2.22167 -0.733487 0.20892 -2.03217e-16 0.0 -3.88251e-19 -8.36308 -25.9973 -8.95755 -0.809091 58.2015 1.95623 -10.0094 -26.2792 -18.5539 2.03217e-16 0.0 3.88251e-19 11.4932 -45.1482 12.3385 0.265332 34.3056 -0.349721 0.496743 4.16239 5.85248
198.609 77.2923 22.8478 833.432 82.2247 833.401 3.00515 36.5485 1.03388 -1.88191 -3.86209 1.04909 5.55908 -9.84594 6.7825 -19.7567 15.5933 15.0792 -0.0 0.0 0.0 -0.0 0.0 0.0 6.15698e-15 9.20636e-13 -1.73662e-13 63.2288 17.1096 13.7213 -16.0788 -8.76013 29.8402 -0.48537 -19.4088 -2.83821 -3.43172e-10 5.06715e-10 -7.95594e-10 -5.82715e-10 8.85291e-10 -1.38164e-09 -3.43168e-10 5.06713e-10 -7.95597e-10 7.73091 5.47488 0.417314 -3.43172e-10 5.06712e-10 -7.95594e-10 2.90554 0.965183 0.102902 -3.43166e-10 5.06711e-10 -7.95593e-10 10.2786 0.731801 0.0259123 -3.43172e-10 5.06713e-10 -7.95584e-10 2.22167 -0.733487 -0.20892 6.10597e-15 9.20633e-13 -1.73781e-13 -77.4232 32.6509 -4.37219 13.6245 -6.65531 -24.8018 0.267054 -14.5575 2.09155 -1.43087e-10 -1.73573e-10 4.15005e-10 -2.49546e-10 -2.9942e-10 7.15924e-10 -1.43099e-10 -1.73575e-10 4.15017e-10 -7.73091 5.47488 -0.417314 -1.4308e-10 -1.73583e-10 4.14983e-10 -2.90554 0.965183 -0.102902 -1.43101e-10 -1.73574e-10 4.15009e-10 -10.2786 0.731801 -0.0259123 -1.43089e-10 -1.73572e-10 4.15002e-10 -2.22167 -0.733487 0.20892 -2.03217e-16 0.0 -3.88251e-19 -7.92597 -25.1694 -8.52613 -0.800521 57.9164 1.9193 -10.0687 -26.4047 -18.6228 2.03217e-16 0.0 3.88251e-19 11.7429 -44.2437 11.4613 0.234385 32.1121 -0.272383 0.289699 5.83924 5.77605
199.198 77.2777 22.7503 830.111 82.477 829.824 2.95484 36.285 1.25574 -1.95179 -3.62618 1.10223 5.60042 -9.67479 6.84927 -20.0789 15.6886 15.311 -0.0 0.0 0.0 -0.0 0.0 0.0 3.10547e-14 9.8697e-13 -1.19171e-13 63.1652 17.339 13.9406 -16.1114 -8.79113 29.9081 -0.495937 -19.6067 -2.86959 -1.07057e-09 -9.28468e-11 -8.29835e-10 -1.84154e-09 -1.47498e-10 -1.44964e-09 -1.07057e-09 -9.28491e-11 -8.29839e-10 7.73091 5.47488 0.417314 -1.07057e-09 -9.28509e-11 -8.29839e-10 2.90554 0.965183 0.102902 -1.07057e-09 -9.28516e-11 -8.29834e-10 10.2786 0.731801 0.0259123 -1.07057e-09 -9.28499e-11 -8.29826e-10 2.22167 -0.733487 -0.20892 3.09682e-14 9.86961e-13 -1.19321e-13 -77.4901 32.5899 -4.39565 13.6364 -6.66479 -24.8253 0.259959 -14.3647 2.06267 -1.79825e-10 4.54088e-11 1.33627e-09 -3.19577e-10 8.10151e-11 2.30784e-09 -1.79839e-10 4.54076e-11 1.33628e-09 -7.73091 5.47488 -0.417314 -1.79819e-10 4.53986e-11 1.33625e-09 -2.90554 0.965183 -0.102902 -1.7984e-10 4.54076e-11 1.33628e-09 -10.2786 0.731801 -0.0259123 -1.7983e-10 4.54092e-11 1.33627e-09 -2.22167 -0.733487 0.20892 -2.03217e-16 0.0 -3.88251e-19 -7.60061 -24.4233 -8.10744 -0.793656 57.6698 1.88705 -10.1179 -26.5356 -18.6676 2.03217e-16 0.0 3.88251e-19 12.0218 -43.4281 10.8444 0.212888 30.251 -0.199918 0.0652166 7.51636 6.33603
199.702 77.2304 22.6527 825.551 82.7611 825.245 2.77353 36.0192 1.49713 -2.00604 -3.47186 1.14477 5.61889 -9.48323 6.91849 -20.2923 15.803 15.5457 -0.0 0.0 0.0 -0.0 0.0 0.0 7.33397e-14 1.11551e-12 -6.71422e-14 63.1812 17.5898 14.0612 -16.1895 -8.86472 30.0731 -0.503534 -19.7479 -2.89201 -1.6462e-09 -4.65206e-10 -7.31182e-10 -2.83887e-09 -7.88413e-10 -1.28681e-09 -1.6462e-09 -4.65209e-10 -7.31183e-10 7.73091 5.47488 0.417314 -1.6462e-09 -4.6521e-10 -7.31185e-10 2.90554 0.965183 0.102902 -1.6462e-09 -4.65211e-10 -7.31179e-10 10.2786 0.731801 0.0259123 -1.6462e-09 -4.65209e-10 -7.31172e-10 2.22167 -0.733487 -0.20892 7.32813e-14 1.11551e-12 -6.73197e-14 -77.4909 32.5524 -4.43456 13.6558 -6.68 -24.8643 0.256693 -14.2724 2.04887 -4.10228e-10 1.34497e-10 1.75954e-09 -7.20162e-10 2.33773e-10 3.03762e-09 -4.10241e-10 1.34496e-10 1.75955e-09 -7.73091 5.47488 -0.417314 -4.10222e-10 1.34488e-10 1.75952e-09 -2.90554 0.965183 -0.102902 -4.10241e-10 1.34495e-10 1.75954e-09 -10.2786 0.731801 -0.0259123 -4.10232e-10 1.34495e-10 1.75954e-09 -2.22167 -0.733487 0.20892 -2.03217e-16 0.0 -3.88251e-19 -7.42318 -23.7849 -7.69812 -0.788466 57.4639 1.85841 -10.1463 -26.6764 -18.6662 2.03217e-16 0.0 3.88251e-19 12.2855 -42.7075 10.5091 0.198728 28.7452 -0.126084 -0.277248 9.28102 7.96334
